<?xml version="1.0" standalone="no"?><!-- Generator: Gravit.io --><svg xmlns="http://www.w3.org/2000/svg" xmlns:xlink="http://www.w3.org/1999/xlink" style="isolation:isolate" viewBox="0 0 579.6 133.04" width="579.6" height="133.04"><defs><clipPath id="_clipPath_z1sb9qCxRjgKy4XbkEGJrp0ioc31eXv9"><rect width="579.6" height="133.04"/></clipPath></defs><g clip-path="url(#_clipPath_z1sb9qCxRjgKy4XbkEGJrp0ioc31eXv9)"><g style="isolation:isolate" id="FULL LOGO"><g style="isolation:isolate" id="I"/><g style="isolation:isolate" id="logo"/><g style="isolation:isolate" id="THIS"/></g><g style="isolation:isolate" id="Layer 4"/><g style="isolation:isolate" id="Layer 9"><path d=" M 433.106 71.55 L 376.616 71.55 L 376.616 128.013 C 376.616 130.772 374.375 133.013 371.616 133.013 C 368.856 133.013 366.616 130.772 366.616 128.013 L 366.616 5.03 C 366.616 2.27 368.856 0.03 371.616 0.03 C 374.375 0.03 376.616 2.27 376.616 5.03 L 376.616 61.55 L 433.106 61.55 L 433.106 5.058 C 433.106 2.299 435.346 0.058 438.106 0.058 C 440.865 0.058 443.106 2.299 443.106 5.058 L 443.106 128.041 C 443.106 130.8 440.865 133.041 438.106 133.041 C 435.346 133.041 433.106 130.8 433.106 128.041 L 433.106 71.55 Z  M 313.243 10.03 L 336.488 10.03 C 339.248 10.03 341.488 7.79 341.488 5.03 C 341.488 2.27 339.248 0.03 336.488 0.03 L 308.778 0.03 C 308.602 0.011 308.424 0.002 308.243 0.002 C 308.063 0.002 307.884 0.011 307.709 0.03 L 279.998 0.03 C 277.239 0.03 274.998 2.27 274.998 5.03 C 274.998 7.79 277.239 10.03 279.998 10.03 L 303.243 10.03 L 303.243 127.984 C 303.243 130.744 305.484 132.984 308.243 132.984 C 311.003 132.984 313.243 130.744 313.243 127.984 L 313.243 10.03 Z  M 473.106 0.002 L 473.106 0.002 C 475.865 0.002 478.106 2.242 478.106 5.002 L 478.106 127.984 C 478.106 130.744 475.865 132.984 473.106 132.984 L 473.106 132.984 C 470.346 132.984 468.106 130.744 468.106 127.984 L 468.106 5.002 C 468.106 2.242 470.346 0.002 473.106 0.002 Z  M 543.302 62.007 L 543.295 62.004 L 537.302 59.107 C 537.202 59.107 537.102 59.007 537.002 59.007 C 530.602 56.407 524.702 52.907 519.202 48.807 C 515.402 45.507 513.202 40.807 513.102 35.807 C 513.302 28.807 516.202 22.107 521.302 17.307 C 526.402 12.507 533.202 9.907 540.202 10.007 L 541.202 10.007 C 548.702 10.207 555.902 13.107 561.402 18.207 C 566.402 22.707 569.402 29.107 569.602 35.907 C 569.602 37.207 570.202 38.507 571.202 39.407 C 572.102 40.307 573.402 40.807 574.702 40.807 C 576.102 40.707 577.302 40.207 578.202 39.207 C 579.102 38.207 579.602 36.907 579.602 35.607 C 579.302 26.107 575.202 17.107 568.102 10.807 C 560.802 4.107 551.302 0.307 541.502 0.007 C 541.502 0.007 541.502 0.007 541.402 0.007 L 540.402 0.007 C 530.702 -0.193 521.302 3.407 514.302 10.107 C 507.302 16.807 503.302 26.107 503.102 35.707 C 503.202 43.807 506.802 51.407 512.902 56.607 C 519.102 61.307 525.902 65.207 533.002 68.207 L 538.902 71.007 C 538.904 71.008 538.906 71.009 538.908 71.01 L 545.702 74.307 C 545.802 74.307 545.802 74.407 545.902 74.407 C 552.102 77.007 558.002 80.407 563.302 84.407 C 567.202 87.607 569.502 92.207 569.602 97.207 C 569.402 104.207 566.502 110.807 561.402 115.707 C 556.302 120.507 549.502 123.107 542.602 123.007 C 542.502 123.007 542.502 123.007 542.502 123.007 L 541.502 122.907 C 534.002 122.707 526.902 119.807 521.402 114.807 C 516.302 110.307 513.302 103.907 513.102 97.107 C 513.102 95.707 512.502 94.507 511.502 93.607 C 510.602 92.707 509.302 92.207 508.002 92.207 C 506.602 92.207 505.402 92.807 504.502 93.807 C 503.602 94.707 503.102 96.007 503.102 97.407 C 503.402 106.907 507.602 115.907 514.702 122.207 C 521.902 128.907 531.402 132.707 541.202 132.907 C 541.202 132.907 541.302 132.907 541.302 132.907 L 542.302 133.007 C 552.002 133.207 561.402 129.507 568.402 122.807 C 575.402 116.107 579.402 106.907 579.602 97.207 C 579.502 89.207 575.802 81.607 569.502 76.607 C 563.502 72.007 556.902 68.207 549.902 65.207 L 543.302 62.007 Z " fill-rule="evenodd" fill="rgb(255,255,255)"/><g id="Group"><g id="Group"><path d=" M 4.998 0.002 L 4.998 0.002 C 7.758 0.002 9.998 2.242 9.998 5.002 L 9.998 127.984 C 9.998 130.744 7.758 132.984 4.998 132.984 L 4.998 132.984 C 2.239 132.984 -0.002 130.744 -0.002 127.984 L -0.002 5.002 C -0.002 2.242 2.239 0.002 4.998 0.002 Z " fill="rgb(255,255,255)"/><path d=" M 63.605 56.848 C 54.425 36.645 63.373 12.79 83.576 3.609 C 103.778 -5.572 127.634 3.377 136.815 23.579 Q 145.995 43.782 142.355 132.956 Q 72.786 77.05 63.605 56.848 Z " fill="rgb(255,255,255)"/><path d=" M 175.088 44.263 C 172.749 39.263 174.91 33.305 179.91 30.967 C 184.91 28.628 190.868 30.789 193.207 35.789 C 195.546 40.789 193.385 46.747 188.385 49.086 C 183.385 51.424 177.427 49.264 175.088 44.263 Z " fill="rgb(255,255,255)"/></g></g><path d=" M 147.407 23.604 C 156.574 3.395 180.423 -5.569 200.632 3.598 C 220.841 12.765 229.805 36.614 220.638 56.823 C 217.191 64.423 207.342 75.813 191.09 90.994 Q 172.251 108.593 141.94 132.984 Q 138.24 43.813 147.407 23.604 Z  M 156.502 27.707 C 161.402 16.907 172.202 10.007 184.102 10.007 C 188.302 10.007 192.602 10.907 196.502 12.707 C 207.302 17.607 214.202 28.407 214.202 40.207 C 214.202 44.507 213.302 48.607 211.602 52.507 C 209.402 56.807 206.602 60.807 203.302 64.307 C 197.302 71.107 191.002 77.507 184.302 83.607 C 178.102 89.407 171.802 95.107 165.402 100.607 C 160.702 104.507 156.002 108.507 151.302 112.407 C 151.002 99.507 150.902 86.507 151.002 73.607 C 151.102 64.307 151.602 55.007 152.702 45.707 C 153.202 41.407 153.902 37.007 154.902 32.707 C 155.202 31.007 155.802 29.307 156.502 27.707 Z " fill-rule="evenodd" fill="rgb(255,255,255)"/></g></g></svg>